{
    "asset" : {
        "generator" : "Khronos glTF Blender I/O v3.2.40",
        "version" : "2.0"
    },
    "scene" : 0,
    "scenes" : [
        {
            "name" : "Scene",
            "nodes" : [
                0,
                1,
                2,
                3,
                4,
                5,
                6,
                7,
                8,
                9
            ]
        }
    ],
    "nodes" : [
        {
            "mesh" : 0,
            "name" : "Cube.001"
        },
        {
            "mesh" : 1,
            "name" : "Plane"
        },
        {
            "mesh" : 2,
            "name" : "Cube.002"
        },
        {
            "mesh" : 3,
            "name" : "Plane.001"
        },
        {
            "mesh" : 4,
            "name" : "Plane.002"
        },
        {
            "mesh" : 5,
            "name" : "Plane.003"
        },
        {
            "mesh" : 6,
            "name" : "Plane.004"
        },
        {
            "mesh" : 7,
            "name" : "Plane.005_Plane.006"
        },
        {
            "mesh" : 8,
            "name" : "Suzanne",
            "rotation" : [
                0,
                0,
                0.5420700311660767,
                0.8403332829475403
            ],
            "translation" : [
                -0.4033869206905365,
                0.009497704915702343,
                -0.02195528894662857
            ]
        },
        {
            "mesh" : 9,
            "name" : "Cube",
            "translation" : [
                0,
                0,
                0.35401812195777893
            ]
        }
    ],
    "materials" : [
        {
            "doubleSided" : true,
            "name" : "cube",
            "pbrMetallicRoughness" : {
                "baseColorFactor" : [
                    0.800000011920929,
                    0.800000011920929,
                    0.800000011920929,
                    1
                ],
                "metallicFactor" : 0
            }
        },
        {
            "doubleSided" : true,
            "name" : "floor",
            "pbrMetallicRoughness" : {
                "baseColorFactor" : [
                    0.800000011920929,
                    0.800000011920929,
                    0.800000011920929,
                    1
                ],
                "metallicFactor" : 0
            }
        },
        {
            "doubleSided" : true,
            "name" : "cuboid",
            "pbrMetallicRoughness" : {
                "baseColorFactor" : [
                    0.800000011920929,
                    0.800000011920929,
                    0.800000011920929,
                    1
                ],
                "roughnessFactor" : 0.2818181812763214
            }
        },
        {
            "doubleSided" : true,
            "name" : "green_wall",
            "pbrMetallicRoughness" : {
                "baseColorFactor" : [
                    0,
                    1,
                    0,
                    1
                ],
                "metallicFactor" : 0
            }
        },
        {
            "doubleSided" : true,
            "name" : "red_wall",
            "pbrMetallicRoughness" : {
                "baseColorFactor" : [
                    1,
                    0,
                    0,
                    1
                ],
                "metallicFactor" : 0
            }
        },
        {
            "doubleSided" : true,
            "name" : "back_wall",
            "pbrMetallicRoughness" : {
                "baseColorFactor" : [
                    0.800000011920929,
                    0.800000011920929,
                    0.800000011920929,
                    1
                ],
                "metallicFactor" : 0
            }
        },
        {
            "doubleSided" : true,
            "name" : "ceiling",
            "pbrMetallicRoughness" : {
                "baseColorFactor" : [
                    0.800000011920929,
                    0.800000011920929,
                    0.800000011920929,
                    1
                ],
                "metallicFactor" : 0
            }
        },
        {
            "doubleSided" : true,
            "emissiveFactor" : [
                1,
                1,
                1
            ],
            "name" : "lamp",
            "pbrMetallicRoughness" : {
                "baseColorFactor" : [
                    0.800000011920929,
                    0.7626559734344482,
                    0,
                    1
                ],
                "metallicFactor" : 0,
                "roughnessFactor" : 0.525658369064331
            }
        },
        {
            "doubleSided" : true,
            "name" : "Material",
            "pbrMetallicRoughness" : {
                "baseColorFactor" : [
                    0.8000000715255737,
                    0.4997473359107971,
                    0.07955855876207352,
                    1
                ],
                "metallicFactor" : 0,
                "roughnessFactor" : 0.5090909004211426
            }
        },
        {
            "doubleSided" : true,
            "name" : "Material.001",
            "pbrMetallicRoughness" : {
                "baseColorFactor" : [
                    0.800000011920929,
                    0.800000011920929,
                    0.800000011920929,
                    1
                ],
                "metallicFactor" : 0,
                "roughnessFactor" : 0.5
            }
        }
    ],
    "meshes" : [
        {
            "name" : "Cube.001",
            "primitives" : [
                {
                    "attributes" : {
                        "POSITION" : 0,
                        "NORMAL" : 1,
                        "TEXCOORD_0" : 2
                    },
                    "indices" : 3,
                    "material" : 0
                }
            ]
        },
        {
            "name" : "Plane",
            "primitives" : [
                {
                    "attributes" : {
                        "POSITION" : 4,
                        "NORMAL" : 5,
                        "TEXCOORD_0" : 6
                    },
                    "indices" : 7,
                    "material" : 1
                }
            ]
        },
        {
            "name" : "Cube.002",
            "primitives" : [
                {
                    "attributes" : {
                        "POSITION" : 8,
                        "NORMAL" : 9,
                        "TEXCOORD_0" : 10
                    },
                    "indices" : 11,
                    "material" : 2
                }
            ]
        },
        {
            "name" : "Plane.001",
            "primitives" : [
                {
                    "attributes" : {
                        "POSITION" : 12,
                        "NORMAL" : 13,
                        "TEXCOORD_0" : 14
                    },
                    "indices" : 7,
                    "material" : 3
                }
            ]
        },
        {
            "name" : "Plane.002",
            "primitives" : [
                {
                    "attributes" : {
                        "POSITION" : 15,
                        "NORMAL" : 16,
                        "TEXCOORD_0" : 17
                    },
                    "indices" : 7,
                    "material" : 4
                }
            ]
        },
        {
            "name" : "Plane.003",
            "primitives" : [
                {
                    "attributes" : {
                        "POSITION" : 18,
                        "NORMAL" : 19,
                        "TEXCOORD_0" : 20
                    },
                    "indices" : 7,
                    "material" : 5
                }
            ]
        },
        {
            "name" : "Plane.004",
            "primitives" : [
                {
                    "attributes" : {
                        "POSITION" : 21,
                        "NORMAL" : 22,
                        "TEXCOORD_0" : 23
                    },
                    "indices" : 24,
                    "material" : 6
                }
            ]
        },
        {
            "name" : "Plane.005_Plane.006",
            "primitives" : [
                {
                    "attributes" : {
                        "POSITION" : 25,
                        "NORMAL" : 26,
                        "TEXCOORD_0" : 27
                    },
                    "indices" : 7,
                    "material" : 7
                }
            ]
        },
        {
            "name" : "Suzanne",
            "primitives" : [
                {
                    "attributes" : {
                        "POSITION" : 28,
                        "NORMAL" : 29,
                        "TEXCOORD_0" : 30
                    },
                    "indices" : 31,
                    "material" : 8
                }
            ]
        },
        {
            "name" : "Cube",
            "primitives" : [
                {
                    "attributes" : {
                        "POSITION" : 32,
                        "NORMAL" : 33,
                        "TEXCOORD_0" : 34
                    },
                    "indices" : 35,
                    "material" : 9
                }
            ]
        }
    ],
    "accessors" : [
        {
            "bufferView" : 0,
            "componentType" : 5126,
            "count" : 24,
            "max" : [
                -0.21438777446746826,
                -0.1988534927368164,
                0.33772239089012146
            ],
            "min" : [
                -0.5876560211181641,
                -0.4858224093914032,
                -0.03554576635360718
            ],
            "type" : "VEC3"
        },
        {
            "bufferView" : 1,
            "componentType" : 5126,
            "count" : 24,
            "type" : "VEC3"
        },
        {
            "bufferView" : 2,
            "componentType" : 5126,
            "count" : 24,
            "type" : "VEC2"
        },
        {
            "bufferView" : 3,
            "componentType" : 5123,
            "count" : 36,
            "type" : "SCALAR"
        },
        {
            "bufferView" : 4,
            "componentType" : 5126,
            "count" : 4,
            "max" : [
                -0.12379949539899826,
                -0.48582249879837036,
                0.49733519554138184
            ],
            "min" : [
                -1.127323865890503,
                -0.48582255840301514,
                -0.5061891078948975
            ],
            "type" : "VEC3"
        },
        {
            "bufferView" : 5,
            "componentType" : 5126,
            "count" : 4,
            "type" : "VEC3"
        },
        {
            "bufferView" : 6,
            "componentType" : 5126,
            "count" : 4,
            "type" : "VEC2"
        },
        {
            "bufferView" : 7,
            "componentType" : 5123,
            "count" : 6,
            "type" : "SCALAR"
        },
        {
            "bufferView" : 8,
            "componentType" : 5126,
            "count" : 32,
            "max" : [
                -0.48297032713890076,
                0.03465387225151062,
                -0.016298815608024597
            ],
            "min" : [
                -0.7949591875076294,
                -0.48582252860069275,
                -0.32828766107559204
            ],
            "type" : "VEC3"
        },
        {
            "bufferView" : 9,
            "componentType" : 5126,
            "count" : 32,
            "type" : "VEC3"
        },
        {
            "bufferView" : 10,
            "componentType" : 5126,
            "count" : 32,
            "type" : "VEC2"
        },
        {
            "bufferView" : 11,
            "componentType" : 5123,
            "count" : 36,
            "type" : "SCALAR"
        },
        {
            "bufferView" : 12,
            "componentType" : 5126,
            "count" : 4,
            "max" : [
                -0.12379943579435349,
                0.5177017450332642,
                0.4973353147506714
            ],
            "min" : [
                -1.127323865890503,
                -0.48582255840301514,
                0.49733513593673706
            ],
            "type" : "VEC3"
        },
        {
            "bufferView" : 13,
            "componentType" : 5126,
            "count" : 4,
            "type" : "VEC3"
        },
        {
            "bufferView" : 14,
            "componentType" : 5126,
            "count" : 4,
            "type" : "VEC2"
        },
        {
            "bufferView" : 15,
            "componentType" : 5126,
            "count" : 4,
            "max" : [
                -0.12379949539899826,
                0.5177017450332642,
                -0.5061890482902527
            ],
            "min" : [
                -1.127323865890503,
                -0.48582255840301514,
                -0.5061891078948975
            ],
            "type" : "VEC3"
        },
        {
            "bufferView" : 16,
            "componentType" : 5126,
            "count" : 4,
            "type" : "VEC3"
        },
        {
            "bufferView" : 17,
            "componentType" : 5126,
            "count" : 4,
            "type" : "VEC2"
        },
        {
            "bufferView" : 18,
            "componentType" : 5126,
            "count" : 4,
            "max" : [
                -1.1273237466812134,
                0.5177017450332642,
                0.49733519554138184
            ],
            "min" : [
                -1.127323865890503,
                -0.48582249879837036,
                -0.5061891078948975
            ],
            "type" : "VEC3"
        },
        {
            "bufferView" : 19,
            "componentType" : 5126,
            "count" : 4,
            "type" : "VEC3"
        },
        {
            "bufferView" : 20,
            "componentType" : 5126,
            "count" : 4,
            "type" : "VEC2"
        },
        {
            "bufferView" : 21,
            "componentType" : 5126,
            "count" : 8,
            "max" : [
                -0.12379943579435349,
                0.5177022218704224,
                0.49733519554138184
            ],
            "min" : [
                -1.127323865890503,
                0.5177015066146851,
                -0.5061891078948975
            ],
            "type" : "VEC3"
        },
        {
            "bufferView" : 22,
            "componentType" : 5126,
            "count" : 8,
            "type" : "VEC3"
        },
        {
            "bufferView" : 23,
            "componentType" : 5126,
            "count" : 8,
            "type" : "VEC2"
        },
        {
            "bufferView" : 24,
            "componentType" : 5123,
            "count" : 24,
            "type" : "SCALAR"
        },
        {
            "bufferView" : 25,
            "componentType" : 5126,
            "count" : 4,
            "max" : [
                -0.5349579453468323,
                0.5177018642425537,
                0.09647238999605179
            ],
            "min" : [
                -0.7772710919380188,
                0.5177018642425537,
                -0.14584074914455414
            ],
            "type" : "VEC3"
        },
        {
            "bufferView" : 26,
            "componentType" : 5126,
            "count" : 4,
            "type" : "VEC3"
        },
        {
            "bufferView" : 27,
            "componentType" : 5126,
            "count" : 4,
            "type" : "VEC2"
        },
        {
            "bufferView" : 28,
            "componentType" : 5126,
            "count" : 556,
            "max" : [
                0.0802348256111145,
                0.12783412635326385,
                0.15532147884368896
            ],
            "min" : [
                -0.16278693079948425,
                -0.1468295305967331,
                -0.2139979600906372
            ],
            "type" : "VEC3"
        },
        {
            "bufferView" : 29,
            "componentType" : 5126,
            "count" : 556,
            "type" : "VEC3"
        },
        {
            "bufferView" : 30,
            "componentType" : 5126,
            "count" : 556,
            "type" : "VEC2"
        },
        {
            "bufferView" : 31,
            "componentType" : 5123,
            "count" : 2901,
            "type" : "SCALAR"
        },
        {
            "bufferView" : 32,
            "componentType" : 5126,
            "count" : 24,
            "max" : [
                -0.03727670758962631,
                0.05753356218338013,
                0.05753356218338013
            ],
            "min" : [
                -0.15234383940696716,
                -0.05753356218338013,
                -0.05753356218338013
            ],
            "type" : "VEC3"
        },
        {
            "bufferView" : 33,
            "componentType" : 5126,
            "count" : 24,
            "type" : "VEC3"
        },
        {
            "bufferView" : 34,
            "componentType" : 5126,
            "count" : 24,
            "type" : "VEC2"
        },
        {
            "bufferView" : 35,
            "componentType" : 5123,
            "count" : 36,
            "type" : "SCALAR"
        }
    ],
    "bufferViews" : [
        {
            "buffer" : 0,
            "byteLength" : 288,
            "byteOffset" : 0
        },
        {
            "buffer" : 0,
            "byteLength" : 288,
            "byteOffset" : 288
        },
        {
            "buffer" : 0,
            "byteLength" : 192,
            "byteOffset" : 576
        },
        {
            "buffer" : 0,
            "byteLength" : 72,
            "byteOffset" : 768
        },
        {
            "buffer" : 0,
            "byteLength" : 48,
            "byteOffset" : 840
        },
        {
            "buffer" : 0,
            "byteLength" : 48,
            "byteOffset" : 888
        },
        {
            "buffer" : 0,
            "byteLength" : 32,
            "byteOffset" : 936
        },
        {
            "buffer" : 0,
            "byteLength" : 12,
            "byteOffset" : 968
        },
        {
            "buffer" : 0,
            "byteLength" : 384,
            "byteOffset" : 980
        },
        {
            "buffer" : 0,
            "byteLength" : 384,
            "byteOffset" : 1364
        },
        {
            "buffer" : 0,
            "byteLength" : 256,
            "byteOffset" : 1748
        },
        {
            "buffer" : 0,
            "byteLength" : 72,
            "byteOffset" : 2004
        },
        {
            "buffer" : 0,
            "byteLength" : 48,
            "byteOffset" : 2076
        },
        {
            "buffer" : 0,
            "byteLength" : 48,
            "byteOffset" : 2124
        },
        {
            "buffer" : 0,
            "byteLength" : 32,
            "byteOffset" : 2172
        },
        {
            "buffer" : 0,
            "byteLength" : 48,
            "byteOffset" : 2204
        },
        {
            "buffer" : 0,
            "byteLength" : 48,
            "byteOffset" : 2252
        },
        {
            "buffer" : 0,
            "byteLength" : 32,
            "byteOffset" : 2300
        },
        {
            "buffer" : 0,
            "byteLength" : 48,
            "byteOffset" : 2332
        },
        {
            "buffer" : 0,
            "byteLength" : 48,
            "byteOffset" : 2380
        },
        {
            "buffer" : 0,
            "byteLength" : 32,
            "byteOffset" : 2428
        },
        {
            "buffer" : 0,
            "byteLength" : 96,
            "byteOffset" : 2460
        },
        {
            "buffer" : 0,
            "byteLength" : 96,
            "byteOffset" : 2556
        },
        {
            "buffer" : 0,
            "byteLength" : 64,
            "byteOffset" : 2652
        },
        {
            "buffer" : 0,
            "byteLength" : 48,
            "byteOffset" : 2716
        },
        {
            "buffer" : 0,
            "byteLength" : 48,
            "byteOffset" : 2764
        },
        {
            "buffer" : 0,
            "byteLength" : 48,
            "byteOffset" : 2812
        },
        {
            "buffer" : 0,
            "byteLength" : 32,
            "byteOffset" : 2860
        },
        {
            "buffer" : 0,
            "byteLength" : 6672,
            "byteOffset" : 2892
        },
        {
            "buffer" : 0,
            "byteLength" : 6672,
            "byteOffset" : 9564
        },
        {
            "buffer" : 0,
            "byteLength" : 4448,
            "byteOffset" : 16236
        },
        {
            "buffer" : 0,
            "byteLength" : 5802,
            "byteOffset" : 20684
        },
        {
            "buffer" : 0,
            "byteLength" : 288,
            "byteOffset" : 26488
        },
        {
            "buffer" : 0,
            "byteLength" : 288,
            "byteOffset" : 26776
        },
        {
            "buffer" : 0,
            "byteLength" : 192,
            "byteOffset" : 27064
        },
        {
            "buffer" : 0,
            "byteLength" : 72,
            "byteOffset" : 27256
        }
    ],
    "buffers" : [
        {
            "byteLength" : 27328,
            "uri" : "data:application/octet-stream;base64,"
        }
    ]
}
