{
    "asset" : {
        "generator" : "Khronos glTF Blender I/O v1.8.19",
        "version" : "2.0"
    },
    "scene" : 0,
    "scenes" : [
        {
            "name" : "Scene",
            "nodes" : [
                0,
                1
            ]
        }
    ],
    "nodes" : [
        {
            "mesh" : 0,
            "name" : "Suzanne"
        },
        {
            "mesh" : 1,
            "name" : "Suzanne.001",
            "translation" : [
                1.1897704601287842,
                0.5781530737876892,
                -0.9228119254112244
            ]
        }
    ],
    "materials" : [
        {
            "doubleSided" : true,
            "name" : "Material.001",
            "pbrMetallicRoughness" : {
                "baseColorFactor" : [
                    0.8000000715255737,
                    0.03273932263255119,
                    0.09207197278738022,
                    1
                ],
                "metallicFactor" : 0.6499999761581421,
                "roughnessFactor" : 0.4000000059604645
            }
        }
    ],
    "meshes" : [
        {
            "name" : "Suzanne",
            "primitives" : [
                {
                    "attributes" : {
                        "POSITION" : 0,
                        "NORMAL" : 1,
                        "TANGENT" : 2,
                        "TEXCOORD_0" : 3
                    },
                    "indices" : 4,
                    "material" : 0
                }
            ]
        },
        {
            "name" : "Suzanne.001",
            "primitives" : [
                {
                    "attributes" : {
                        "POSITION" : 5,
                        "NORMAL" : 6,
                        "TANGENT" : 7,
                        "TEXCOORD_0" : 8
                    },
                    "indices" : 9,
                    "material" : 0
                }
            ]
        }
    ],
    "accessors" : [
        {
            "bufferView" : 0,
            "componentType" : 5126,
            "count" : 2873,
            "max" : [
                1.3671875,
                0.984375,
                0.8515625
            ],
            "min" : [
                -1.3671875,
                -0.984375,
                -0.8515625
            ],
            "type" : "VEC3"
        },
        {
            "bufferView" : 1,
            "componentType" : 5126,
            "count" : 2873,
            "type" : "VEC3"
        },
        {
            "bufferView" : 2,
            "componentType" : 5126,
            "count" : 2873,
            "type" : "VEC4"
        },
        {
            "bufferView" : 3,
            "componentType" : 5126,
            "count" : 2873,
            "type" : "VEC2"
        },
        {
            "bufferView" : 4,
            "componentType" : 5123,
            "count" : 2901,
            "type" : "SCALAR"
        },
        {
            "bufferView" : 5,
            "componentType" : 5126,
            "count" : 556,
            "max" : [
                1.3671875,
                0.984375,
                0.8515625
            ],
            "min" : [
                -1.3671875,
                -0.984375,
                -0.8515625
            ],
            "type" : "VEC3"
        },
        {
            "bufferView" : 6,
            "componentType" : 5126,
            "count" : 556,
            "type" : "VEC3"
        },
        {
            "bufferView" : 7,
            "componentType" : 5126,
            "count" : 556,
            "type" : "VEC4"
        },
        {
            "bufferView" : 8,
            "componentType" : 5126,
            "count" : 556,
            "type" : "VEC2"
        },
        {
            "bufferView" : 9,
            "componentType" : 5123,
            "count" : 2901,
            "type" : "SCALAR"
        }
    ],
    "bufferViews" : [
        {
            "buffer" : 0,
            "byteLength" : 34476,
            "byteOffset" : 0
        },
        {
            "buffer" : 0,
            "byteLength" : 34476,
            "byteOffset" : 34476
        },
        {
            "buffer" : 0,
            "byteLength" : 45968,
            "byteOffset" : 68952
        },
        {
            "buffer" : 0,
            "byteLength" : 22984,
            "byteOffset" : 114920
        },
        {
            "buffer" : 0,
            "byteLength" : 5802,
            "byteOffset" : 137904
        },
        {
            "buffer" : 0,
            "byteLength" : 6672,
            "byteOffset" : 143708
        },
        {
            "buffer" : 0,
            "byteLength" : 6672,
            "byteOffset" : 150380
        },
        {
            "buffer" : 0,
            "byteLength" : 8896,
            "byteOffset" : 157052
        },
        {
            "buffer" : 0,
            "byteLength" : 4448,
            "byteOffset" : 165948
        },
        {
            "buffer" : 0,
            "byteLength" : 5802,
            "byteOffset" : 170396
        }
    ],
    "buffers" : [
        {
            "byteLength" : 176200,
            "uri" : "data:application/octet-stream;base64,"
        }
    ]
}
