{
    "asset" : {
        "generator" : "Khronos glTF Blender I/O v3.2.40",
        "version" : "2.0"
    },
    "scene" : 0,
    "scenes" : [
        {
            "name" : "Scene",
            "nodes" : [
                0,
                1,
                2,
                3,
                4,
                5
            ]
        }
    ],
    "nodes" : [
        {
            "mesh" : 0,
            "name" : "Cube"
        },
        {
            "mesh" : 1,
            "name" : "Cube.001"
        },
        {
            "mesh" : 2,
            "name" : "Cube.002"
        },
        {
            "mesh" : 3,
            "name" : "Cube.003"
        },
        {
            "mesh" : 4,
            "name" : "Plane"
        },
        {
            "camera" : 0,
            "name" : "Camera",
            "rotation" : [
                0,
                0.7071068286895752,
                0,
                0.7071068286895752
            ],
            "translation" : [
                5.11166524887085,
                0,
                0
            ]
        }
    ],
    "cameras" : [
        {
            "name" : "Camera.001",
            "perspective" : {
                "aspectRatio" : 1,
                "yfov" : 0.6911112070083618,
                "zfar" : 1000,
                "znear" : 0.10000000149011612
            },
            "type" : "perspective"
        }
    ],
    "materials" : [
        {
            "doubleSided" : true,
            "name" : "Material.001",
            "pbrMetallicRoughness" : {
                "metallicFactor" : 0
            }
        },
        {
            "doubleSided" : true,
            "name" : "Material.002",
            "pbrMetallicRoughness" : {
                "baseColorFactor" : [
                    1,
                    0,
                    0,
                    1
                ],
                "metallicFactor" : 0
            }
        },
        {
            "doubleSided" : true,
            "name" : "Material.003",
            "pbrMetallicRoughness" : {
                "baseColorFactor" : [
                    0,
                    1,
                    0.005171298980712891,
                    1
                ],
                "metallicFactor" : 0.8045454621315002,
                "roughnessFactor" : 0.6863636374473572
            }
        },
        {
            "doubleSided" : true,
            "emissiveFactor" : [
                1,
                1,
                1
            ],
            "name" : "Material.004",
            "pbrMetallicRoughness" : {
                "baseColorFactor" : [
                    0.800000011920929,
                    0.800000011920929,
                    0.800000011920929,
                    1
                ],
                "metallicFactor" : 0
            }
        },
        {
            "doubleSided" : true,
            "name" : "Material.005",
            "pbrMetallicRoughness" : {
                "baseColorFactor" : [
                    0.800000011920929,
                    0.800000011920929,
                    0.800000011920929,
                    1
                ],
                "roughnessFactor" : 0.04545454680919647
            }
        }
    ],
    "meshes" : [
        {
            "name" : "Cube.001",
            "primitives" : [
                {
                    "attributes" : {
                        "POSITION" : 0,
                        "NORMAL" : 1,
                        "TANGENT" : 2,
                        "TEXCOORD_0" : 3
                    },
                    "indices" : 4,
                    "material" : 0
                }
            ]
        },
        {
            "name" : "Cube.002",
            "primitives" : [
                {
                    "attributes" : {
                        "POSITION" : 5,
                        "NORMAL" : 6,
                        "TANGENT" : 7,
                        "TEXCOORD_0" : 8
                    },
                    "indices" : 9,
                    "material" : 1
                }
            ]
        },
        {
            "name" : "Cube.003",
            "primitives" : [
                {
                    "attributes" : {
                        "POSITION" : 10,
                        "NORMAL" : 11,
                        "TANGENT" : 12,
                        "TEXCOORD_0" : 13
                    },
                    "indices" : 14,
                    "material" : 2
                }
            ]
        },
        {
            "name" : "Cube.004",
            "primitives" : [
                {
                    "attributes" : {
                        "POSITION" : 15,
                        "NORMAL" : 16,
                        "TANGENT" : 17,
                        "TEXCOORD_0" : 18
                    },
                    "indices" : 19,
                    "material" : 3
                }
            ]
        },
        {
            "name" : "Plane",
            "primitives" : [
                {
                    "attributes" : {
                        "POSITION" : 20,
                        "NORMAL" : 21,
                        "TANGENT" : 22,
                        "TEXCOORD_0" : 23
                    },
                    "indices" : 24,
                    "material" : 4
                }
            ]
        }
    ],
    "accessors" : [
        {
            "bufferView" : 0,
            "componentType" : 5126,
            "count" : 20,
            "max" : [
                1.1846998929977417,
                1,
                1
            ],
            "min" : [
                -1,
                -1,
                -1
            ],
            "type" : "VEC3"
        },
        {
            "bufferView" : 1,
            "componentType" : 5126,
            "count" : 20,
            "type" : "VEC3"
        },
        {
            "bufferView" : 2,
            "componentType" : 5126,
            "count" : 20,
            "type" : "VEC4"
        },
        {
            "bufferView" : 3,
            "componentType" : 5126,
            "count" : 20,
            "type" : "VEC2"
        },
        {
            "bufferView" : 4,
            "componentType" : 5123,
            "count" : 30,
            "type" : "SCALAR"
        },
        {
            "bufferView" : 5,
            "componentType" : 5126,
            "count" : 34,
            "max" : [
                0.32820552587509155,
                -0.38429275155067444,
                0.7535839676856995
            ],
            "min" : [
                -0.32820552587509155,
                -1.0767227411270142,
                0.09717284888029099
            ],
            "type" : "VEC3"
        },
        {
            "bufferView" : 6,
            "componentType" : 5126,
            "count" : 34,
            "type" : "VEC3"
        },
        {
            "bufferView" : 7,
            "componentType" : 5126,
            "count" : 34,
            "type" : "VEC4"
        },
        {
            "bufferView" : 8,
            "componentType" : 5126,
            "count" : 34,
            "type" : "VEC2"
        },
        {
            "bufferView" : 9,
            "componentType" : 5123,
            "count" : 36,
            "type" : "SCALAR"
        },
        {
            "bufferView" : 10,
            "componentType" : 5126,
            "count" : 32,
            "max" : [
                0.3514782190322876,
                -0.015944479033350945,
                -0.18404266238212585
            ],
            "min" : [
                -0.3514782786369324,
                -1.1108455657958984,
                -0.8869991302490234
            ],
            "type" : "VEC3"
        },
        {
            "bufferView" : 11,
            "componentType" : 5126,
            "count" : 32,
            "type" : "VEC3"
        },
        {
            "bufferView" : 12,
            "componentType" : 5126,
            "count" : 32,
            "type" : "VEC4"
        },
        {
            "bufferView" : 13,
            "componentType" : 5126,
            "count" : 32,
            "type" : "VEC2"
        },
        {
            "bufferView" : 14,
            "componentType" : 5123,
            "count" : 36,
            "type" : "SCALAR"
        },
        {
            "bufferView" : 15,
            "componentType" : 5126,
            "count" : 24,
            "max" : [
                0.3477885127067566,
                0.8322526216506958,
                0.3477885127067566
            ],
            "min" : [
                -0.3477885127067566,
                0.13667558133602142,
                -0.3477885127067566
            ],
            "type" : "VEC3"
        },
        {
            "bufferView" : 16,
            "componentType" : 5126,
            "count" : 24,
            "type" : "VEC3"
        },
        {
            "bufferView" : 17,
            "componentType" : 5126,
            "count" : 24,
            "type" : "VEC4"
        },
        {
            "bufferView" : 18,
            "componentType" : 5126,
            "count" : 24,
            "type" : "VEC2"
        },
        {
            "bufferView" : 19,
            "componentType" : 5123,
            "count" : 36,
            "type" : "SCALAR"
        },
        {
            "bufferView" : 20,
            "componentType" : 5126,
            "count" : 4,
            "max" : [
                1,
                -0.9115137457847595,
                1
            ],
            "min" : [
                -1,
                -0.9115137457847595,
                -1
            ],
            "type" : "VEC3"
        },
        {
            "bufferView" : 21,
            "componentType" : 5126,
            "count" : 4,
            "type" : "VEC3"
        },
        {
            "bufferView" : 22,
            "componentType" : 5126,
            "count" : 4,
            "type" : "VEC4"
        },
        {
            "bufferView" : 23,
            "componentType" : 5126,
            "count" : 4,
            "type" : "VEC2"
        },
        {
            "bufferView" : 24,
            "componentType" : 5123,
            "count" : 6,
            "type" : "SCALAR"
        }
    ],
    "bufferViews" : [
        {
            "buffer" : 0,
            "byteLength" : 240,
            "byteOffset" : 0
        },
        {
            "buffer" : 0,
            "byteLength" : 240,
            "byteOffset" : 240
        },
        {
            "buffer" : 0,
            "byteLength" : 320,
            "byteOffset" : 480
        },
        {
            "buffer" : 0,
            "byteLength" : 160,
            "byteOffset" : 800
        },
        {
            "buffer" : 0,
            "byteLength" : 60,
            "byteOffset" : 960
        },
        {
            "buffer" : 0,
            "byteLength" : 408,
            "byteOffset" : 1020
        },
        {
            "buffer" : 0,
            "byteLength" : 408,
            "byteOffset" : 1428
        },
        {
            "buffer" : 0,
            "byteLength" : 544,
            "byteOffset" : 1836
        },
        {
            "buffer" : 0,
            "byteLength" : 272,
            "byteOffset" : 2380
        },
        {
            "buffer" : 0,
            "byteLength" : 72,
            "byteOffset" : 2652
        },
        {
            "buffer" : 0,
            "byteLength" : 384,
            "byteOffset" : 2724
        },
        {
            "buffer" : 0,
            "byteLength" : 384,
            "byteOffset" : 3108
        },
        {
            "buffer" : 0,
            "byteLength" : 512,
            "byteOffset" : 3492
        },
        {
            "buffer" : 0,
            "byteLength" : 256,
            "byteOffset" : 4004
        },
        {
            "buffer" : 0,
            "byteLength" : 72,
            "byteOffset" : 4260
        },
        {
            "buffer" : 0,
            "byteLength" : 288,
            "byteOffset" : 4332
        },
        {
            "buffer" : 0,
            "byteLength" : 288,
            "byteOffset" : 4620
        },
        {
            "buffer" : 0,
            "byteLength" : 384,
            "byteOffset" : 4908
        },
        {
            "buffer" : 0,
            "byteLength" : 192,
            "byteOffset" : 5292
        },
        {
            "buffer" : 0,
            "byteLength" : 72,
            "byteOffset" : 5484
        },
        {
            "buffer" : 0,
            "byteLength" : 48,
            "byteOffset" : 5556
        },
        {
            "buffer" : 0,
            "byteLength" : 48,
            "byteOffset" : 5604
        },
        {
            "buffer" : 0,
            "byteLength" : 64,
            "byteOffset" : 5652
        },
        {
            "buffer" : 0,
            "byteLength" : 32,
            "byteOffset" : 5716
        },
        {
            "buffer" : 0,
            "byteLength" : 12,
            "byteOffset" : 5748
        }
    ],
    "buffers" : [
        {
            "byteLength" : 5760,
            "uri" : "room.bin"
        }
    ]
}
